# xmcd CD database file
#
# Track frame offsets:
#	150
#	20206
#	48212
#	73084
#	111271
#	142758
#	163711
#	189770
#	223605
#
# Disc length: 3365 seconds
#
# Revision: 1
# Processed by: cddbd v1.5.1PL0 Copyright (c) Steve Scherf et al.
# Submitted via: CDex 1.51
#
DISCID=7b0d2309
DTITLE=Vasily Bogatyrev - Taganai
DYEAR=2004
DGENRE=New Age
TTITLE0=Twi-lite
TTITLE1=Elektro
TTITLE2=Taganai
TTITLE3=Lladro
TTITLE4=Trekata
TTITLE5="8"
TTITLE6=Echoes
TTITLE7=Saint-Saens
TTITLE8=Fanfare
EXTD=YEAR: 2004
EXTT0=
EXTT1=
EXTT2=
EXTT3=
EXTT4=
EXTT5=
EXTT6=
EXTT7=
EXTT8=
PLAYORDER=
